<svg width="676" height="538" viewBox="0 0 676 538" fill="none" xmlns="http://www.w3.org/2000/svg">
<g opacity="0.9">
<path d="M591.859 449.7L591.857 449.7L71.8568 434.8C47.9077 434.107 28.2151 415.8 25.84 391.95L25.84 391.95L0.740026 143.95C-2.03104 116.141 19.5436 91.8959 47.4494 91.5C47.4495 91.5 47.4495 91.5 47.4496 91.5L626.249 83.5C655.147 83.1041 677.809 108.34 674.246 137.038L640.546 407.938C637.478 432.384 616.398 450.492 591.859 449.7Z" fill="white" stroke="#C6C6C6"/>
<mask id="mask0_301:4755" style="mask-type:alpha" maskUnits="userSpaceOnUse" x="0" y="82" width="676" height="369">
<path d="M591.859 449.7L591.857 449.7L71.857 434.8C47.9079 434.107 28.2153 415.8 25.8402 391.95L25.8402 391.95L0.740239 143.95C-2.03083 116.141 19.5438 91.8959 47.4496 91.5C47.4497 91.5 47.4497 91.5 47.4498 91.5L626.25 83.5C655.147 83.1041 677.809 108.34 674.246 137.038L640.547 407.938C637.478 432.384 616.399 450.492 591.859 449.7Z" fill="#EAF9F3" stroke="#C6C6C6"/>
</mask>
<g mask="url(#mask0_301:4755)">
<path d="M516.943 517.5H932.443C940.743 517.5 947.443 510.8 947.443 502.5V266.9C947.443 258.6 940.743 251.9 932.443 251.9H516.943C508.643 251.9 501.943 258.6 501.943 266.9V502.5C501.943 510.8 508.743 517.5 516.943 517.5Z" stroke="#C6C6C6" stroke-width="1.8" stroke-miterlimit="10" stroke-linecap="round" stroke-linejoin="round"/>
<path d="M-32.1575 501.7H386.943C395.243 501.7 401.943 495 401.943 486.7V142.4C401.943 134.1 395.243 127.4 386.943 127.4H-32.1575C-40.4575 127.4 -47.1575 134.1 -47.1575 142.4V486.7C-47.1575 495 -40.3575 501.7 -32.1575 501.7Z" stroke="#C6C6C6" stroke-width="1.8" stroke-miterlimit="10" stroke-linecap="round" stroke-linejoin="round"/>
<path d="M539.543 251.8H559.843C562.043 251.8 563.842 250.2 564.142 248L565.743 233.6C566.043 231.1 564.043 228.8 561.443 228.8H537.943C535.343 228.8 533.442 231 533.642 233.6L535.243 248C535.543 250.2 537.343 251.8 539.543 251.8Z" stroke="#C6C6C6" stroke-width="1.8" stroke-miterlimit="10" stroke-linecap="round" stroke-linejoin="round"/>
<mask id="path-6-inside-1_301:4755" fill="white">
<path d="M552.043 228.9C552.043 228.9 560.043 228.1 561.643 217.3C561.643 217.3 554.443 219.4 552.143 224.5C552.143 224.5 551.143 213.1 545.743 212C545.743 212 543.343 220.5 547.143 224.7C547.143 224.7 544.243 219.9 536.843 220C536.843 220 538.743 226.8 546.043 228.8"/>
</mask>
<path d="M552.043 228.9C552.043 228.9 560.043 228.1 561.643 217.3C561.643 217.3 554.443 219.4 552.143 224.5C552.143 224.5 551.143 213.1 545.743 212C545.743 212 543.343 220.5 547.143 224.7C547.143 224.7 544.243 219.9 536.843 220C536.843 220 538.743 226.8 546.043 228.8" fill="#C6C6C6"/>
<path d="M561.643 217.3L562.632 217.447L562.86 215.903L561.363 216.34L561.643 217.3ZM552.143 224.5L551.146 224.587L551.481 228.4L553.054 224.911L552.143 224.5ZM545.743 212L545.942 211.02L545.032 210.835L544.78 211.728L545.743 212ZM547.143 224.7L546.401 225.371L547.998 224.183L547.143 224.7ZM536.843 220L536.829 219L535.53 219.018L535.879 220.269L536.843 220ZM552.043 228.9C552.142 229.895 552.143 229.895 552.143 229.895C552.144 229.895 552.144 229.895 552.145 229.895C552.146 229.895 552.147 229.894 552.149 229.894C552.151 229.894 552.155 229.894 552.158 229.893C552.166 229.893 552.175 229.891 552.186 229.89C552.208 229.887 552.238 229.883 552.275 229.878C552.349 229.867 552.452 229.851 552.58 229.826C552.834 229.777 553.19 229.695 553.618 229.56C554.471 229.292 555.619 228.813 556.818 227.967C559.246 226.257 561.792 223.113 562.632 217.447L560.653 217.153C559.893 222.287 557.639 224.943 555.667 226.333C554.666 227.037 553.714 227.433 553.018 227.652C552.67 227.762 552.388 227.826 552.199 227.863C552.105 227.881 552.034 227.892 551.99 227.899C551.968 227.902 551.953 227.904 551.945 227.905C551.941 227.905 551.939 227.905 551.938 227.905C551.938 227.905 551.939 227.905 551.939 227.905C551.94 227.905 551.94 227.905 551.941 227.905C551.941 227.905 551.942 227.905 551.942 227.905C551.942 227.905 551.943 227.905 552.043 228.9ZM561.643 217.3C561.363 216.34 561.362 216.34 561.362 216.34C561.362 216.34 561.361 216.34 561.361 216.34C561.361 216.341 561.36 216.341 561.359 216.341C561.357 216.341 561.355 216.342 561.353 216.343C561.348 216.344 561.341 216.346 561.333 216.349C561.316 216.354 561.293 216.361 561.263 216.37C561.204 216.389 561.119 216.416 561.011 216.452C560.796 216.524 560.491 216.631 560.119 216.776C559.377 217.065 558.361 217.505 557.268 218.114C555.113 219.314 552.513 221.247 551.231 224.089L553.054 224.911C554.073 222.653 556.222 220.986 558.242 219.861C559.236 219.307 560.165 218.904 560.844 218.64C561.183 218.508 561.458 218.411 561.646 218.348C561.74 218.317 561.812 218.294 561.859 218.279C561.882 218.272 561.9 218.267 561.91 218.264C561.916 218.262 561.92 218.261 561.922 218.26C561.923 218.26 561.923 218.26 561.923 218.26C561.923 218.26 561.923 218.26 561.923 218.26C561.923 218.26 561.923 218.26 561.923 218.26C561.923 218.26 561.923 218.26 561.643 217.3ZM552.143 224.5C553.139 224.413 553.139 224.412 553.139 224.412C553.139 224.412 553.139 224.412 553.139 224.411C553.139 224.411 553.138 224.41 553.138 224.409C553.138 224.407 553.138 224.404 553.138 224.401C553.137 224.394 553.136 224.385 553.135 224.372C553.133 224.348 553.129 224.314 553.125 224.269C553.115 224.18 553.101 224.051 553.082 223.888C553.042 223.562 552.98 223.099 552.889 222.54C552.706 221.425 552.403 219.918 551.923 218.367C551.445 216.824 550.777 215.187 549.841 213.845C548.906 212.504 547.636 211.365 545.942 211.02L545.543 212.98C546.549 213.185 547.429 213.883 548.2 214.989C548.971 216.094 549.565 217.513 550.012 218.958C550.457 220.395 550.742 221.806 550.915 222.863C551.002 223.391 551.06 223.826 551.096 224.128C551.114 224.279 551.127 224.396 551.135 224.474C551.139 224.514 551.142 224.543 551.144 224.562C551.145 224.572 551.146 224.579 551.146 224.583C551.146 224.585 551.146 224.586 551.146 224.587C551.146 224.587 551.146 224.588 551.146 224.588C551.146 224.588 551.146 224.588 551.146 224.588C551.146 224.588 551.146 224.587 552.143 224.5ZM545.743 212C544.78 211.728 544.78 211.729 544.78 211.729C544.78 211.729 544.78 211.729 544.78 211.73C544.78 211.73 544.779 211.731 544.779 211.732C544.779 211.734 544.778 211.736 544.777 211.739C544.776 211.744 544.774 211.752 544.771 211.761C544.766 211.78 544.759 211.807 544.749 211.842C544.731 211.911 544.706 212.011 544.675 212.138C544.613 212.392 544.531 212.757 544.445 213.205C544.273 214.1 544.084 215.343 544.019 216.728C543.891 219.435 544.222 222.962 546.401 225.371L547.884 224.029C546.264 222.238 545.894 219.415 546.016 216.822C546.076 215.557 546.25 214.412 546.409 213.582C546.488 213.168 546.564 212.836 546.619 212.609C546.646 212.495 546.669 212.408 546.684 212.351C546.691 212.322 546.697 212.301 546.7 212.288C546.702 212.281 546.704 212.276 546.704 212.274C546.705 212.272 546.705 212.272 546.705 212.271C546.705 212.271 546.705 212.271 546.705 212.271C546.705 212.271 546.705 212.271 546.705 212.271C546.705 212.272 546.705 212.272 545.743 212ZM547.143 224.7C547.998 224.183 547.998 224.182 547.998 224.182C547.998 224.182 547.997 224.181 547.997 224.181C547.997 224.18 547.996 224.179 547.996 224.178C547.994 224.176 547.993 224.174 547.992 224.172C547.989 224.167 547.985 224.161 547.98 224.154C547.971 224.139 547.959 224.121 547.944 224.098C547.914 224.052 547.872 223.989 547.817 223.912C547.707 223.758 547.546 223.547 547.33 223.298C546.9 222.8 546.25 222.147 545.352 221.501C543.546 220.201 540.765 218.947 536.829 219L536.856 221C540.321 220.953 542.689 222.049 544.183 223.124C544.935 223.665 545.473 224.207 545.817 224.605C545.989 224.805 546.113 224.967 546.19 225.076C546.229 225.13 546.256 225.17 546.272 225.195C546.28 225.207 546.285 225.215 546.288 225.219C546.289 225.221 546.289 225.222 546.289 225.221C546.289 225.221 546.289 225.221 546.288 225.22C546.288 225.22 546.288 225.219 546.288 225.219C546.287 225.219 546.287 225.218 546.287 225.218C546.287 225.218 546.287 225.217 547.143 224.7ZM536.843 220C535.879 220.269 535.88 220.27 535.88 220.27C535.88 220.27 535.88 220.271 535.88 220.271C535.88 220.272 535.88 220.273 535.881 220.274C535.881 220.276 535.882 220.278 535.883 220.281C535.884 220.287 535.887 220.294 535.889 220.303C535.894 220.321 535.902 220.345 535.911 220.375C535.93 220.435 535.957 220.52 535.994 220.625C536.068 220.837 536.18 221.134 536.337 221.494C536.651 222.213 537.149 223.188 537.89 224.23C539.375 226.317 541.852 228.689 545.778 229.764L546.307 227.836C542.933 226.911 540.81 224.883 539.52 223.07C538.874 222.162 538.44 221.312 538.17 220.693C538.035 220.385 537.941 220.135 537.883 219.967C537.853 219.883 537.833 219.819 537.82 219.779C537.814 219.759 537.81 219.744 537.807 219.736C537.806 219.732 537.805 219.73 537.805 219.729C537.805 219.728 537.805 219.728 537.805 219.729C537.805 219.729 537.805 219.729 537.805 219.729C537.805 219.73 537.805 219.73 537.805 219.73C537.806 219.73 537.806 219.731 536.843 220Z" fill="#C6C6C6" mask="url(#path-6-inside-1_301:4755)"/>
<path d="M53.8426 232.1H74.1426C76.3426 232.1 78.1425 230.5 78.4425 228.3L80.0425 213.9C80.3425 211.4 78.3425 209.1 75.7425 209.1H52.2425C49.6425 209.1 47.7425 211.3 47.9425 213.9L49.5425 228.3C49.7425 230.4 51.6426 232.1 53.8426 232.1Z" stroke="#C6C6C6" stroke-width="1.8" stroke-miterlimit="10" stroke-linecap="round" stroke-linejoin="round"/>
<mask id="path-9-inside-2_301:4755" fill="white">
<path d="M66.3425 209.1C66.3425 209.1 74.3425 208.3 75.9425 197.5C75.9425 197.5 68.7425 199.6 66.4425 204.7C66.4425 204.7 65.4425 193.3 60.0425 192.2C60.0425 192.2 57.6425 200.7 61.4425 204.9C61.4425 204.9 58.5425 200.1 51.1425 200.2C51.1425 200.2 53.0425 207 60.3425 209"/>
</mask>
<path d="M66.3425 209.1C66.3425 209.1 74.3425 208.3 75.9425 197.5C75.9425 197.5 68.7425 199.6 66.4425 204.7C66.4425 204.7 65.4425 193.3 60.0425 192.2C60.0425 192.2 57.6425 200.7 61.4425 204.9C61.4425 204.9 58.5425 200.1 51.1425 200.2C51.1425 200.2 53.0425 207 60.3425 209" fill="#C6C6C6"/>
<path d="M75.9425 197.5L76.9317 197.647L77.1604 196.103L75.6625 196.54L75.9425 197.5ZM66.4425 204.7L65.4464 204.787L65.7808 208.6L67.3541 205.111L66.4425 204.7ZM60.0425 192.2L60.2421 191.22L59.3324 191.035L59.0802 191.928L60.0425 192.2ZM61.4425 204.9L60.701 205.571L62.2985 204.383L61.4425 204.9ZM51.1425 200.2L51.129 199.2L49.8298 199.218L50.1794 200.469L51.1425 200.2ZM66.3425 209.1C66.442 210.095 66.4427 210.095 66.4434 210.095C66.4437 210.095 66.4444 210.095 66.445 210.095C66.4461 210.095 66.4473 210.095 66.4487 210.094C66.4514 210.094 66.4545 210.094 66.4582 210.093C66.4656 210.093 66.4749 210.091 66.486 210.09C66.5084 210.087 66.5383 210.084 66.5753 210.078C66.6494 210.068 66.752 210.051 66.8795 210.026C67.1345 209.977 67.4902 209.895 67.9176 209.76C68.7713 209.492 69.9187 209.013 71.1185 208.168C73.5458 206.457 76.0923 203.313 76.9317 197.647L74.9533 197.353C74.1928 202.487 71.9392 205.143 69.9666 206.533C68.9664 207.237 68.0138 207.633 67.3175 207.852C66.9698 207.962 66.6881 208.026 66.4993 208.063C66.405 208.081 66.3341 208.092 66.2902 208.099C66.2683 208.102 66.2531 208.104 66.245 208.105C66.241 208.105 66.2388 208.105 66.2385 208.105C66.2383 208.105 66.2386 208.105 66.2393 208.105C66.2397 208.105 66.2402 208.105 66.2408 208.105C66.2411 208.105 66.2417 208.105 66.2418 208.105C66.2424 208.105 66.243 208.105 66.3425 209.1ZM75.9425 197.5C75.6625 196.54 75.6622 196.54 75.6619 196.54C75.6618 196.54 75.6614 196.54 75.6611 196.54C75.6606 196.541 75.6599 196.541 75.6591 196.541C75.6575 196.542 75.6555 196.542 75.653 196.543C75.6481 196.544 75.6414 196.546 75.6331 196.549C75.6165 196.554 75.5931 196.561 75.5633 196.57C75.5038 196.589 75.4188 196.616 75.3113 196.652C75.0964 196.724 74.791 196.831 74.4191 196.976C73.6765 197.265 72.6614 197.705 71.5685 198.314C69.4129 199.514 66.8125 201.447 65.5309 204.289L67.3541 205.111C68.3725 202.853 70.5222 201.186 72.5416 200.061C73.5362 199.507 74.4648 199.104 75.1441 198.84C75.4831 198.708 75.7582 198.611 75.946 198.549C76.0399 198.517 76.1118 198.494 76.1589 198.479C76.1825 198.472 76.1998 198.467 76.2105 198.464C76.2159 198.462 76.2196 198.461 76.2216 198.46C76.2226 198.46 76.2232 198.46 76.2234 198.46C76.2234 198.46 76.2234 198.46 76.2233 198.46C76.2232 198.46 76.223 198.46 76.223 198.46C76.2228 198.46 76.2225 198.46 75.9425 197.5ZM66.4425 204.7C67.4387 204.613 67.4387 204.612 67.4387 204.612C67.4386 204.612 67.4386 204.612 67.4386 204.611C67.4385 204.611 67.4385 204.61 67.4384 204.609C67.4382 204.607 67.4379 204.604 67.4376 204.601C67.437 204.594 67.4361 204.585 67.435 204.572C67.4327 204.548 67.4293 204.514 67.4247 204.469C67.4155 204.38 67.4015 204.251 67.3818 204.088C67.3425 203.762 67.2804 203.299 67.1887 202.74C67.0059 201.625 66.7031 200.118 66.2228 198.567C65.7452 197.024 65.0768 195.387 64.1409 194.045C63.2058 192.704 61.9364 191.565 60.2421 191.22L59.8429 193.18C60.8487 193.385 61.7293 194.083 62.5004 195.189C63.2708 196.294 63.8649 197.713 64.3123 199.158C64.757 200.595 65.0417 202.006 65.2151 203.063C65.3016 203.591 65.3598 204.026 65.3962 204.328C65.4144 204.479 65.4272 204.596 65.4353 204.674C65.4393 204.714 65.4422 204.743 65.444 204.762C65.4449 204.772 65.4456 204.779 65.4459 204.783C65.4461 204.785 65.4463 204.786 65.4463 204.787C65.4464 204.788 65.4464 204.788 65.4464 204.788C65.4464 204.788 65.4464 204.788 65.4464 204.788C65.4464 204.788 65.4464 204.787 66.4425 204.7ZM60.0425 192.2C59.0802 191.928 59.0801 191.929 59.08 191.929C59.08 191.929 59.0799 191.929 59.0798 191.93C59.0796 191.93 59.0794 191.931 59.0792 191.932C59.0787 191.934 59.078 191.936 59.0773 191.939C59.0758 191.944 59.0737 191.952 59.0711 191.961C59.0659 191.98 59.0586 192.007 59.0494 192.042C59.0312 192.111 59.0056 192.211 58.9749 192.338C58.9134 192.592 58.831 192.957 58.7449 193.405C58.573 194.3 58.384 195.543 58.3186 196.928C58.1909 199.635 58.5215 203.162 60.701 205.571L62.1841 204.229C60.5635 202.438 60.1941 199.615 60.3164 197.022C60.3761 195.757 60.5496 194.612 60.709 193.782C60.7884 193.368 60.8639 193.036 60.9188 192.809C60.9463 192.695 60.9685 192.608 60.9836 192.551C60.9911 192.522 60.9968 192.501 61.0005 192.488C61.0023 192.481 61.0036 192.476 61.0043 192.474C61.0047 192.472 61.005 192.472 61.0051 192.471C61.0051 192.471 61.0051 192.471 61.0051 192.471C61.0051 192.471 61.005 192.471 61.005 192.471C61.005 192.472 61.0049 192.472 60.0425 192.2ZM61.4425 204.9C62.2985 204.383 62.2982 204.382 62.2978 204.382C62.2977 204.382 62.2974 204.381 62.2972 204.381C62.2967 204.38 62.2962 204.379 62.2956 204.378C62.2945 204.376 62.2931 204.374 62.2916 204.372C62.2886 204.367 62.2849 204.361 62.2804 204.354C62.2714 204.339 62.2594 204.321 62.2443 204.298C62.2142 204.252 62.1718 204.189 62.1168 204.112C62.0068 203.958 61.8458 203.747 61.6304 203.498C61.2 203 60.5496 202.347 59.6517 201.701C57.8459 200.401 55.0646 199.147 51.129 199.2L51.1561 201.2C54.6205 201.153 56.9892 202.249 58.4834 203.324C59.2355 203.865 59.7725 204.407 60.1171 204.805C60.2893 205.005 60.4127 205.167 60.4901 205.276C60.5289 205.33 60.556 205.37 60.572 205.395C60.58 205.407 60.5852 205.415 60.5876 205.419C60.5888 205.421 60.5893 205.422 60.5892 205.421C60.5891 205.421 60.5888 205.421 60.5884 205.42C60.5882 205.42 60.5879 205.419 60.5876 205.419C60.5875 205.419 60.5872 205.418 60.5872 205.418C60.5869 205.418 60.5866 205.417 61.4425 204.9ZM51.1425 200.2C50.1794 200.469 50.1796 200.47 50.1797 200.47C50.1798 200.47 50.1799 200.471 50.18 200.471C50.1802 200.472 50.1805 200.473 50.1808 200.474C50.1813 200.476 50.182 200.478 50.1828 200.481C50.1844 200.487 50.1866 200.494 50.1892 200.503C50.1944 200.521 50.2017 200.545 50.2111 200.575C50.2299 200.635 50.2573 200.72 50.2942 200.825C50.368 201.037 50.4799 201.334 50.6371 201.694C50.9511 202.413 51.449 203.388 52.1903 204.43C53.6753 206.517 56.1524 208.889 60.0783 209.964L60.6068 208.036C57.2327 207.111 55.1098 205.083 53.8198 203.27C53.1736 202.362 52.7402 201.512 52.4698 200.893C52.3349 200.585 52.2413 200.335 52.1827 200.167C52.1534 200.083 52.1328 200.019 52.1202 199.979C52.114 199.959 52.1097 199.944 52.1073 199.936C52.1061 199.932 52.1053 199.93 52.1051 199.929C52.105 199.928 52.1049 199.928 52.105 199.929C52.1051 199.929 52.1052 199.929 52.1053 199.929C52.1053 199.93 52.1054 199.93 52.1054 199.93C52.1055 199.931 52.1057 199.931 51.1425 200.2Z" fill="#C6C6C6" mask="url(#path-9-inside-2_301:4755)"/>
<path d="M520.143 301.6H610.343C612.643 301.6 614.543 299.7 614.543 297.4V269.9C614.543 267.6 612.643 265.7 610.343 265.7H520.143C517.843 265.7 515.943 267.6 515.943 269.9V297.3C515.943 299.7 517.843 301.6 520.143 301.6Z" stroke="#C6C6C6" stroke-width="1.8" stroke-miterlimit="10" stroke-linecap="round" stroke-linejoin="round"/>
<path d="M575.643 275H554.843C554.319 275 553.843 274.524 553.843 274C553.843 273.476 554.319 273 554.843 273H575.643C576.166 273 576.643 273.476 576.643 274C576.643 274.524 576.166 275 575.643 275Z" fill="#C6C6C6" stroke="#C6C6C6"/>
<path d="M520.143 347.4H610.343C612.643 347.4 614.543 345.5 614.543 343.2V315.8C614.543 313.5 612.643 311.6 610.343 311.6H520.143C517.843 311.6 515.943 313.5 515.943 315.8V343.2C515.943 345.5 517.843 347.4 520.143 347.4Z" stroke="#C6C6C6" stroke-width="1.8" stroke-miterlimit="10" stroke-linecap="round" stroke-linejoin="round"/>
<path d="M575.643 320.8H554.843C554.319 320.8 553.843 320.324 553.843 319.8C553.843 319.276 554.319 318.8 554.843 318.8H575.643C576.166 318.8 576.643 319.276 576.643 319.8C576.643 320.324 576.166 320.8 575.643 320.8Z" fill="#C6C6C6" stroke="#C6C6C6"/>
<path d="M56.9425 379.8H147.143C149.443 379.8 151.343 377.9 151.343 375.6V348.2C151.343 345.9 149.443 344 147.143 344H56.9425C54.6425 344 52.7425 345.9 52.7425 348.2V375.6C52.7425 377.9 54.6425 379.8 56.9425 379.8Z" stroke="#C6C6C6" stroke-width="1.8" stroke-miterlimit="10" stroke-linecap="round" stroke-linejoin="round"/>
<path d="M112.543 353.1H91.7426C91.4062 353.1 91.1647 352.99 91.0086 352.834C90.8525 352.678 90.7426 352.436 90.7426 352.1C90.7426 351.576 91.2187 351.1 91.7426 351.1H112.543C113.066 351.1 113.543 351.576 113.543 352.1C113.543 352.624 113.066 353.1 112.543 353.1Z" fill="#C6C6C6" stroke="#C6C6C6"/>
<path d="M172.743 379.8H262.943C265.243 379.8 267.143 377.9 267.143 375.6V348.2C267.143 345.9 265.243 344 262.943 344H172.743C170.443 344 168.543 345.9 168.543 348.2V375.6C168.543 377.9 170.443 379.8 172.743 379.8Z" stroke="#C6C6C6" stroke-width="1.8" stroke-miterlimit="10" stroke-linecap="round" stroke-linejoin="round"/>
<path d="M228.343 353.1H207.543C207.206 353.1 206.965 352.99 206.809 352.834C206.652 352.678 206.543 352.436 206.543 352.1C206.543 351.576 207.019 351.1 207.543 351.1H228.343C228.866 351.1 229.343 351.576 229.343 352.1C229.343 352.624 228.866 353.1 228.343 353.1Z" fill="#C6C6C6" stroke="#C6C6C6"/>
<path d="M635.143 301.6H725.343C727.643 301.6 729.543 299.7 729.543 297.4V269.9C729.543 267.6 727.643 265.7 725.343 265.7H635.143C632.843 265.7 630.943 267.6 630.943 269.9V297.3C630.943 299.7 632.843 301.6 635.143 301.6Z" stroke="#C6C6C6" stroke-width="1.8" stroke-miterlimit="10" stroke-linecap="round" stroke-linejoin="round"/>
<path d="M690.643 275H669.843C669.319 275 668.843 274.524 668.843 274C668.843 273.476 669.319 273 669.843 273H690.643C691.166 273 691.643 273.476 691.643 274C691.643 274.524 691.166 275 690.643 275Z" fill="#C6C6C6" stroke="#C6C6C6"/>
<path d="M635.143 347.4H725.343C727.643 347.4 729.543 345.5 729.543 343.2V315.8C729.543 313.5 727.643 311.6 725.343 311.6H635.143C632.843 311.6 630.943 313.5 630.943 315.8V343.2C630.943 345.5 632.843 347.4 635.143 347.4Z" stroke="#C6C6C6" stroke-width="1.8" stroke-miterlimit="10" stroke-linecap="round" stroke-linejoin="round"/>
<path d="M690.643 320.8H669.843C669.319 320.8 668.843 320.324 668.843 319.8C668.843 319.276 669.319 318.8 669.843 318.8H690.643C691.166 318.8 691.643 319.276 691.643 319.8C691.643 320.324 691.166 320.8 690.643 320.8Z" fill="#C6C6C6" stroke="#C6C6C6"/>
<path d="M-74.3575 232.2H380.643C383.143 232.2 385.243 230.1 385.243 227.6V147.9C385.243 145.4 383.143 143.3 380.643 143.3H-74.3575C-76.8575 143.3 -78.9575 145.4 -78.9575 147.9V227.6C-78.9575 230.2 -76.8575 232.2 -74.3575 232.2Z" stroke="#C6C6C6" stroke-width="1.8" stroke-miterlimit="10" stroke-linecap="round" stroke-linejoin="round"/>
<path d="M-74.3575 331.2H380.643C383.143 331.2 385.243 329.1 385.243 326.6V246.9C385.243 244.4 383.143 242.3 380.643 242.3H-74.3575C-76.8575 242.3 -78.9575 244.4 -78.9575 246.9V326.6C-78.9575 329.1 -76.8575 331.2 -74.3575 331.2Z" stroke="#C6C6C6" stroke-width="1.8" stroke-miterlimit="10" stroke-linecap="round" stroke-linejoin="round"/>
<path d="M344.774 232.288L354.674 232.288L354.674 181.988L344.774 181.988L344.774 232.288Z" stroke="#C6C6C6" stroke-width="1.8" stroke-miterlimit="10" stroke-linecap="round" stroke-linejoin="round"/>
<path d="M334.431 232.203L344.731 232.203L344.731 195.603L334.431 195.603L334.431 232.203Z" stroke="#C6C6C6" stroke-width="1.8" stroke-miterlimit="10" stroke-linecap="round" stroke-linejoin="round"/>
<path d="M46.3962 331.029L56.2962 331.029L56.2962 280.729L46.3962 280.729L46.3962 331.029Z" stroke="#C6C6C6" stroke-width="1.8" stroke-miterlimit="10" stroke-linecap="round" stroke-linejoin="round"/>
<path d="M36.0534 331.043L46.3534 331.043L46.3534 294.443L36.0534 294.443L36.0534 331.043Z" stroke="#C6C6C6" stroke-width="1.8" stroke-miterlimit="10" stroke-linecap="round" stroke-linejoin="round"/>
<path d="M66.482 331.029L76.382 331.029L76.382 280.729L66.482 280.729L66.482 331.029Z" stroke="#C6C6C6" stroke-width="1.8" stroke-miterlimit="10" stroke-linecap="round" stroke-linejoin="round"/>
<path d="M91.3845 330.619L100.825 327.638L85.6798 279.672L76.2392 282.652L91.3845 330.619Z" stroke="#C6C6C6" stroke-width="1.8" stroke-miterlimit="10" stroke-linecap="round" stroke-linejoin="round"/>
<path d="M56.2391 331.043L66.5391 331.043L66.5391 294.443L56.2391 294.443L56.2391 331.043Z" stroke="#C6C6C6" stroke-width="1.8" stroke-miterlimit="10" stroke-linecap="round" stroke-linejoin="round"/>
<path d="M265.713 188.92L265.713 188.92L265.963 188.759L265.941 188.463L264.841 173.563L264.841 173.563L264.84 173.55C264.772 172.874 265.308 172.3 266.043 172.3H270.343H274.643C275.324 172.3 275.835 172.83 275.842 173.583L274.744 188.463L274.722 188.759L274.972 188.92L274.972 188.92L274.972 188.92L274.973 188.921L274.977 188.924L274.995 188.935C275.011 188.946 275.035 188.962 275.067 188.983C275.131 189.026 275.226 189.089 275.347 189.172C275.589 189.337 275.935 189.579 276.351 189.884C277.184 190.496 278.291 191.359 279.392 192.369C280.496 193.38 281.581 194.526 282.381 195.7C283.186 196.882 283.664 198.04 283.643 199.088C283.543 202.759 281.349 220.415 280.347 228.234C280.079 230.192 278.486 231.6 276.543 231.6H270.343H264.143C262.199 231.6 260.606 230.192 260.338 228.234C259.336 220.415 257.142 202.759 257.042 199.088C257.021 198.04 257.499 196.882 258.304 195.7C259.104 194.526 260.189 193.38 261.293 192.369C262.394 191.359 263.501 190.496 264.334 189.884C264.75 189.579 265.096 189.337 265.338 189.172C265.459 189.089 265.554 189.026 265.618 188.983C265.65 188.962 265.674 188.946 265.69 188.935L265.708 188.924L265.712 188.921L265.713 188.92L265.713 188.92Z" fill="#C6C6C6" stroke="#C6C6C6"/>
<path d="M221.513 188.92L221.513 188.92L221.763 188.759L221.741 188.463L220.641 173.563L220.641 173.563L220.64 173.55C220.572 172.874 221.108 172.3 221.843 172.3H226.143H230.443C231.124 172.3 231.635 172.83 231.642 173.583L230.544 188.463L230.522 188.759L230.772 188.92L230.772 188.92L230.772 188.92L230.773 188.921L230.777 188.924L230.795 188.935C230.811 188.946 230.835 188.962 230.867 188.983C230.931 189.026 231.026 189.089 231.147 189.172C231.389 189.337 231.735 189.579 232.151 189.884C232.984 190.496 234.091 191.359 235.192 192.369C236.296 193.38 237.381 194.526 238.181 195.7C238.986 196.882 239.464 198.04 239.443 199.088C239.343 202.759 237.149 220.415 236.147 228.234C235.879 230.192 234.286 231.6 232.343 231.6H226.143H219.943C217.999 231.6 216.406 230.192 216.138 228.234C215.136 220.415 212.942 202.759 212.842 199.088C212.821 198.04 213.299 196.882 214.104 195.7C214.904 194.526 215.989 193.38 217.093 192.369C218.194 191.359 219.301 190.496 220.134 189.884C220.55 189.579 220.896 189.337 221.138 189.172C221.259 189.089 221.354 189.026 221.418 188.983C221.45 188.962 221.474 188.946 221.49 188.935L221.508 188.924L221.512 188.921L221.513 188.92L221.513 188.92Z" fill="#C6C6C6" stroke="#C6C6C6"/>
<path d="M662.743 425.6H-270.157" stroke="#C6C6C6" stroke-width="1.8" stroke-miterlimit="10" stroke-linecap="round" stroke-linejoin="round"/>
<path d="M249.443 331.2H166.243C163.543 331.2 161.342 329 161.342 326.3V313.2C161.342 310.5 163.543 308.3 166.243 308.3H249.443C252.143 308.3 254.342 310.5 254.342 313.2V326.3C254.342 329 252.143 331.2 249.443 331.2Z" stroke="#C6C6C6" stroke-width="1.8" stroke-miterlimit="10" stroke-linecap="round" stroke-linejoin="round"/>
<path d="M237.743 287.2H177.743V308.2H237.743V287.2Z" stroke="#C6C6C6" stroke-width="1.8" stroke-miterlimit="10" stroke-linecap="round" stroke-linejoin="round"/>
<path d="M171.743 315.9C171.743 316.452 171.295 316.9 170.743 316.9C170.19 316.9 169.743 316.452 169.743 315.9C169.743 315.348 170.19 314.9 170.743 314.9C171.295 314.9 171.743 315.348 171.743 315.9Z" fill="#C6C6C6" stroke="#C6C6C6"/>
</g>
<path d="M259.842 308.7L302.043 293C303.643 292.4 304.743 290.8 304.743 289.1L220.943 283.1L233.842 306.3L255.643 309.2C257.043 309.4 258.542 309.2 259.842 308.7Z" fill="#63737A"/>
<path d="M153.643 293.4L146.043 234.1C145.843 232.4 147.243 231 148.843 231.1L250.243 238.3C251.743 238.4 252.943 239.6 253.043 241.1L259.043 306.4C259.243 308.1 257.743 309.5 256.043 309.3L156.243 296.1C154.843 295.8 153.743 294.7 153.643 293.4Z" fill="black"/>
<path d="M304.743 289.2C304.743 291 303.643 292.5 302.043 293.1L259.842 308.8C258.842 309.2 257.643 309.4 256.543 309.3C254.943 308.1 253.943 306.2 253.943 306.2L304.743 289.2Z" fill="black"/>
<path d="M202.087 273.715C204.753 271.746 205.052 267.63 202.756 264.52C200.459 261.41 196.437 260.485 193.771 262.453C191.106 264.421 190.806 268.538 193.103 271.648C195.399 274.758 199.422 275.683 202.087 273.715Z" fill="#63737A"/>
<path d="M436.842 25H406.243L403.142 27C402.142 27.7 400.842 26.9 400.842 25.7V4C400.842 1.8 402.642 0 404.842 0H436.943C439.143 0 440.943 1.8 440.943 4V20.9C440.843 23.2 439.042 25 436.842 25Z" fill="#F8AB5D"/>
<path d="M420.443 10H431.142" stroke="black" stroke-width="1.8" stroke-miterlimit="10" stroke-linecap="round" stroke-linejoin="round"/>
<path d="M420.443 15.5H426.943" stroke="black" stroke-width="1.8" stroke-miterlimit="10" stroke-linecap="round" stroke-linejoin="round"/>
<path d="M414.943 10H409.443V15.5H414.943V10Z" stroke="black" stroke-width="1.8" stroke-miterlimit="10" stroke-linecap="round" stroke-linejoin="round"/>
<path d="M254.042 186.9L85.0425 212.5C81.2425 213.1 77.8425 210.3 77.5425 206.5L67.4425 54.3C67.1425 50.1 70.6425 46.6 74.8425 46.9L244.143 57.7C247.342 57.9 249.943 60.4 250.243 63.6L259.942 179.5C260.242 183 257.643 186.3 254.042 186.9Z" fill="#63737A"/>
<path d="M258.643 186.7L88.8425 212.4C85.0425 213 81.6425 210.2 81.3425 206.4L71.1425 53.5C70.8425 49.3 74.3425 45.7 78.6425 46L248.643 56.8C251.842 57 254.443 59.5 254.743 62.8L264.542 179.2C264.942 182.9 262.342 186.2 258.643 186.7Z" fill="black"/>
<path d="M147.942 134.3L100.142 136.9C98.6425 137 97.3425 135.8 97.2425 134.3L94.4425 93.9C94.3425 92.3 95.6425 90.9 97.2425 90.9L145.042 91.2C146.542 91.2 147.742 92.3 147.842 93.8L150.642 131.3C150.742 132.9 149.542 134.2 147.942 134.3Z" fill="#925AEC"/>
<path d="M199.343 118.7L159.343 120.1C157.843 120.2 156.543 119 156.443 117.5L154.743 94.2C154.643 92.6 155.943 91.2 157.543 91.2L197.543 91.5C198.943 91.5 200.143 92.6 200.343 94.1L202.043 115.7C202.143 117.3 200.943 118.7 199.343 118.7Z" fill="#652CC2"/>
<path d="M244.643 117.2L210.943 118.4C209.443 118.5 208.143 117.3 208.043 115.8L206.343 94.7C206.243 93.1 207.543 91.7 209.143 91.7L242.843 91.9C244.243 91.9 245.443 93 245.643 94.5L247.243 114.2C247.443 115.7 246.243 117.1 244.643 117.2Z" fill="#F8AB5D"/>
<path d="M150.943 173.5L103.143 178.7C101.543 178.9 100.143 177.7 100.043 176.1L98.2425 150C98.1425 148.5 99.3425 147.1 100.842 147L148.743 143.8C150.243 143.7 151.643 144.8 151.743 146.4L153.543 170.5C153.543 172 152.443 173.3 150.943 173.5Z" stroke="#63737A" stroke-width="1.8" stroke-miterlimit="10" stroke-linecap="round" stroke-linejoin="round"/>
<path d="M203.842 172.5L163.942 177.2C162.342 177.4 160.942 176.2 160.842 174.6L157.642 131.5C157.542 129.9 158.742 128.6 160.242 128.5L200.242 126.6C201.742 126.5 203.042 127.7 203.142 129.2L206.342 169.5C206.442 171 205.342 172.3 203.842 172.5Z" fill="#F8AB5D"/>
<path d="M195.542 134.1L166.842 135.8C166.142 135.8 165.642 136.4 165.742 137.1L167.042 154.9C167.142 155.6 167.642 156.1 168.342 156L197.042 153.5C197.742 153.4 198.242 152.9 198.142 152.2L196.842 135.2C196.742 134.6 196.142 134.1 195.542 134.1Z" fill="#925AEC"/>
<path d="M248.642 162.6L214.942 166.3C213.342 166.5 211.942 165.3 211.842 163.7L209.142 129C209.042 127.4 210.242 126.1 211.742 126L245.442 124.4C246.942 124.3 248.242 125.5 248.342 127L251.042 159.6C251.242 161.1 250.142 162.4 248.642 162.6Z" fill="#652CC2"/>
<path d="M126.542 157L127.142 164.4" stroke="#63737A" stroke-width="1.8" stroke-miterlimit="10" stroke-linecap="round" stroke-linejoin="round"/>
<path d="M123.342 161L130.342 160.4" stroke="#63737A" stroke-width="1.8" stroke-miterlimit="10" stroke-linecap="round" stroke-linejoin="round"/>
<path d="M174.443 165.2C174.243 163.2 172.743 161.6 170.943 161.8C169.143 162 167.743 163.8 167.943 165.9C168.143 168 169.743 169.5 171.543 169.3C173.243 169 174.543 167.2 174.443 165.2Z" fill="black"/>
<path d="M180.243 164.6L198.943 162.7" stroke="black" stroke-width="1.8" stroke-miterlimit="10" stroke-linecap="round" stroke-linejoin="round"/>
<path d="M221.843 135.4C221.643 133.5 220.343 132.1 218.743 132.1C217.143 132.2 216.043 133.8 216.143 135.7C216.343 137.6 217.643 139.1 219.243 139C220.943 138.9 222.043 137.3 221.843 135.4Z" fill="#925AEC"/>
<path d="M226.943 135.1L243.043 134.1" stroke="black" stroke-width="1.8" stroke-miterlimit="10" stroke-linecap="round" stroke-linejoin="round"/>
<path d="M222.743 146.1C222.543 144.2 221.243 142.8 219.643 142.9C218.043 143 216.942 144.7 217.042 146.6C217.242 148.5 218.643 150 220.143 149.8C221.743 149.6 222.943 148 222.743 146.1Z" fill="#925AEC"/>
<path d="M227.742 145.7L243.942 144.4" stroke="black" stroke-width="1.8" stroke-miterlimit="10" stroke-linecap="round" stroke-linejoin="round"/>
<path d="M223.643 156.8C223.443 154.9 222.143 153.5 220.543 153.6C218.943 153.7 217.843 155.4 217.943 157.3C218.143 159.2 219.543 160.6 221.043 160.5C222.643 160.3 223.743 158.7 223.643 156.8Z" fill="#925AEC"/>
<path d="M228.643 156.3L244.743 154.7" stroke="black" stroke-width="1.8" stroke-miterlimit="10" stroke-linecap="round" stroke-linejoin="round"/>
<path d="M111.143 107.1L104.643 107.2C104.043 107.2 103.543 106.7 103.443 106.1L102.943 99.3C102.943 98.6 103.443 98.1 104.143 98.1H110.643C111.243 98.1 111.742 98.6 111.842 99.2L112.342 105.9C112.242 106.5 111.743 107.1 111.143 107.1Z" fill="#652CC2"/>
<path d="M118.143 98.1L140.643 98" stroke="black" stroke-width="1.8" stroke-miterlimit="10" stroke-linecap="round" stroke-linejoin="round"/>
<path d="M118.543 103.9L141.043 103.7" stroke="black" stroke-width="1.8" stroke-miterlimit="10" stroke-linecap="round" stroke-linejoin="round"/>
<path d="M219.042 105.5L213.942 105.6C213.642 105.6 213.342 105.3 213.242 105L212.742 98.5C212.742 98.1 213.042 97.8 213.442 97.8H218.542C218.842 97.8 219.142 98.1 219.242 98.4L219.742 104.8C219.742 105.1 219.442 105.5 219.042 105.5Z" fill="black"/>
<path d="M223.842 97.7H240.542" stroke="black" stroke-width="1.8" stroke-miterlimit="10" stroke-linecap="round" stroke-linejoin="round"/>
<path d="M224.342 102.8L240.942 102.6" stroke="black" stroke-width="1.8" stroke-miterlimit="10" stroke-linecap="round" stroke-linejoin="round"/>
<path d="M213.742 111.1L241.542 110.4" stroke="black" stroke-width="1.8" stroke-miterlimit="10" stroke-linecap="round" stroke-linejoin="round"/>
<path d="M112.242 122.6L105.742 122.8C105.142 122.8 104.542 122.3 104.542 121.7L104.042 114.9C104.042 114.2 104.542 113.7 105.142 113.7L111.642 113.5C112.242 113.5 112.742 114 112.842 114.6L113.342 121.3C113.342 122 112.842 122.6 112.242 122.6Z" fill="#652CC2"/>
<path d="M119.242 113.4L141.742 112.8" stroke="black" stroke-width="1.8" stroke-miterlimit="10" stroke-linecap="round" stroke-linejoin="round"/>
<path d="M119.642 119.3L142.142 118.6" stroke="black" stroke-width="1.8" stroke-miterlimit="10" stroke-linecap="round" stroke-linejoin="round"/>
<path d="M128.643 74.2L94.9425 73.2C93.8425 73.2 92.9425 72.3 92.8425 71.2L92.4425 65.9C92.3425 64.6 93.4425 63.5 94.6425 63.6L128.342 65C129.442 65 130.342 65.9 130.442 67L130.842 71.9C130.942 73.1 129.943 74.2 128.643 74.2Z" fill="#925AEC"/>
<path d="M162.742 97.9L194.542 97.8" stroke="black" stroke-width="1.8" stroke-miterlimit="10" stroke-linecap="round" stroke-linejoin="round"/>
<path d="M163.143 103.5L194.943 103.1" stroke="black" stroke-width="1.8" stroke-miterlimit="10" stroke-linecap="round" stroke-linejoin="round"/>
<path d="M163.742 112.3L180.842 111.9" stroke="black" stroke-width="1.8" stroke-miterlimit="10" stroke-linecap="round" stroke-linejoin="round"/>
<path d="M243.643 73.7C243.543 72.2 242.443 70.9 241.143 70.8C239.943 70.7 238.943 72 239.143 73.5C239.243 75.1 240.343 76.4 241.643 76.4C242.843 76.5 243.743 75.2 243.643 73.7Z" fill="#63737A"/>
<path d="M234.743 73.4C234.643 71.8 233.443 70.5 232.243 70.5C230.943 70.4 230.043 71.7 230.143 73.3C230.243 74.9 231.443 76.2 232.743 76.2C233.943 76.2 234.843 74.9 234.743 73.4Z" fill="#63737A"/>
<path d="M225.542 73C225.442 71.4 224.242 70.1 222.942 70C221.642 69.9 220.642 71.2 220.742 72.8C220.842 74.4 222.042 75.7 223.342 75.8C224.742 75.9 225.642 74.6 225.542 73Z" fill="#63737A"/>
<path d="M284.243 86.8L239.842 86C238.042 86 236.542 84.6 236.442 82.8L232.442 33.9C232.342 32.2 233.742 30.9 235.342 31L279.942 35.7C281.642 35.9 282.942 37.2 283.042 38.9L286.942 83.8C287.042 85.5 285.843 86.8 284.243 86.8Z" fill="#F8AB5D"/>
<path d="M286.643 86L242.243 85.2C240.443 85.2 238.942 83.8 238.842 82L234.842 33.1C234.742 31.4 236.143 30.1 237.743 30.2L282.342 34.9C284.042 35.1 285.342 36.4 285.442 38.1L289.342 83C289.442 84.7 288.143 86 286.643 86Z" fill="#652CC2"/>
<path d="M254.242 39.3L277.742 41.5" stroke="#63737A" stroke-width="1.8" stroke-miterlimit="10" stroke-linecap="round" stroke-linejoin="round"/>
<path d="M254.642 44.1L278.142 46.1" stroke="#63737A" stroke-width="1.8" stroke-miterlimit="10" stroke-linecap="round" stroke-linejoin="round"/>
<path d="M255.542 55.1L279.142 56.7" stroke="#63737A" stroke-width="1.8" stroke-miterlimit="10" stroke-linecap="round" stroke-linejoin="round"/>
<path d="M255.942 59.8L279.442 61.2" stroke="#63737A" stroke-width="1.8" stroke-miterlimit="10" stroke-linecap="round" stroke-linejoin="round"/>
<path d="M256.942 70.9L280.442 71.9" stroke="#63737A" stroke-width="1.8" stroke-miterlimit="10" stroke-linecap="round" stroke-linejoin="round"/>
<path d="M257.342 75.6L280.842 76.4" stroke="#63737A" stroke-width="1.8" stroke-miterlimit="10" stroke-linecap="round" stroke-linejoin="round"/>
<path d="M246.142 42L247.342 43.5L249.042 41.2" stroke="#925AEC" stroke-width="1.8" stroke-miterlimit="10" stroke-linecap="round" stroke-linejoin="round"/>
<path d="M247.442 58L248.642 59.4L250.442 57.1" stroke="#925AEC" stroke-width="1.8" stroke-miterlimit="10" stroke-linecap="round" stroke-linejoin="round"/>
<path d="M248.742 73.7L250.042 75.1L251.742 72.7" stroke="#925AEC" stroke-width="1.8" stroke-miterlimit="10" stroke-linecap="round" stroke-linejoin="round"/>
<path d="M305.342 157.1C305.342 157.1 299.142 170 298.642 178.2C298.142 186.4 306.842 219.3 321.042 244.4C321.042 244.4 334.442 240 334.442 235.9C334.442 231.8 326.542 183.3 327.042 181.9C327.542 180.5 333.042 170.2 333.042 165.8C333.042 161.5 307.442 152.3 305.342 157.1Z" fill="#BF8686"/>
<path d="M333.042 165.8C333.042 161.4 307.542 152.3 305.442 157.1C305.442 157.1 304.642 158.9 303.542 161.5C311.642 167.8 320.342 173.2 330.242 175C331.642 171.8 333.042 168 333.042 165.8Z" fill="#B07E7E"/>
<path d="M331.942 102.3C331.942 102.3 321.942 105.7 314.342 122.9C306.642 140.2 298.642 154.5 298.642 154.5C298.642 154.5 311.142 166.9 327.142 173.2C343.142 179.7 343.742 103.9 331.942 102.3Z" fill="#925AEC"/>
<path d="M301.442 149.4C301.442 149.4 318.542 163.4 334.442 169.5" stroke="black" stroke-width="1.8" stroke-miterlimit="10" stroke-linecap="round" stroke-linejoin="round"/>
<path d="M365.342 475.3C365.342 475.3 364.442 496.3 364.642 498.3C364.842 500.4 357.643 504.6 348.743 504.3C339.943 504 339.042 501.4 339.042 501.4C339.042 501.4 337.042 478.7 336.842 475.5C336.642 472.3 363.542 471 365.342 475.3Z" fill="#BF8686"/>
<path d="M364.842 487.4C365.042 481.4 365.342 475.3 365.342 475.3C363.542 471 336.642 472.3 336.842 475.5C336.942 477 337.442 482.6 337.842 488.2C345.742 492.1 356.142 491.1 364.842 487.4Z" fill="black"/>
<path d="M364.642 497.7C364.642 497.7 365.443 503.6 365.743 510C366.043 516.5 367.043 528.1 365.943 530.1C364.743 532.1 358.743 533.8 344.443 534.9C330.143 536 316.942 535 314.642 533.2C312.342 531.4 313.043 528.7 315.243 526.6C317.443 524.5 326.143 515.2 329.743 511.4C334.443 506.4 337.842 501.3 337.842 500.7C338.142 498.3 338.642 498.3 338.642 498.3C338.642 498.3 339.242 499.8 340.042 499.7C340.842 499.6 341.943 495.1 346.743 496.2C351.643 497.3 353.542 500.6 355.342 500.6C357.142 500.5 362.042 499.9 364.642 497.7Z" fill="black"/>
<path d="M402.842 479.5C402.842 479.5 405.542 501.1 406.042 502.4C406.542 503.7 411.542 507.3 419.342 506.9C427.142 506.5 430.143 504.2 430.443 503.7C430.743 503.2 430.242 478.5 430.042 476.9C429.842 475.3 404.642 475.7 402.842 479.5Z" fill="#BF8686"/>
<path d="M430.342 488C430.242 482.5 430.043 477.4 429.943 476.7C429.643 475.1 404.642 475.6 402.742 479.4C402.742 479.4 403.342 484.2 404.042 489.4C413.042 491.5 422.042 490.9 430.342 488Z" fill="black"/>
<path d="M405.642 500.5C405.442 502.1 405.342 503.6 405.442 505.2C405.542 506.5 405.642 508.3 405.642 510.5C405.742 515.1 406.142 531 407.242 533.3C408.342 535.6 420.942 537.5 430.442 537.6C439.942 537.7 446.942 535.2 448.042 532.6C449.142 530 448.542 526.2 445.242 522C441.942 517.8 434.342 511.3 433.442 508.2C432.542 505.1 431.142 501.5 430.542 500.5C430.542 500.5 429.242 502.3 427.842 502.7C426.542 503.1 424.642 497.7 420.542 497.5C416.442 497.2 414.642 498.9 412.042 502.7C411.942 502.7 408.342 503 405.642 500.5Z" fill="black"/>
<path d="M317.942 218.7C317.942 218.7 315.542 229.6 314.342 244.3C313.142 259 317.342 350.1 317.942 357.2C318.542 364.3 320.842 404.8 323.442 424.5C325.542 440.7 324.042 473.4 328.942 478C333.842 482.6 348.842 485.1 358.142 482.6C367.442 480.1 371.742 475.5 372.842 471.7C373.942 467.9 369.542 439 369.842 424.3C370.142 409.6 369.842 366.2 369.342 355.9C369.342 355.9 373.442 303.3 378.342 291.3C383.242 279.3 390.342 235.1 376.742 222.3C362.942 209.5 319.142 216.6 317.942 218.7Z" fill="black"/>
<path d="M339.842 224.5C339.842 224.5 339.742 244.3 340.542 259.1C340.842 264.7 341.342 269.6 342.042 272.5C344.542 282.9 349.942 283.7 354.042 286.1C358.142 288.6 372.842 347.4 378.842 362.7C378.842 362.7 383.442 397.9 387.042 418.9C390.542 439.9 390.042 465.3 392.742 474C395.442 482.7 411.242 484.4 418.942 483.7C426.642 483 436.942 480 436.642 471C436.342 462 434.842 436.4 433.542 414.6C432.142 392.8 429.742 360.3 429.142 352.7C429.142 352.7 426.142 316.7 424.542 298.2C422.942 279.7 423.842 260.8 421.442 228.9C418.842 196.9 339.742 206.7 339.842 224.5Z" fill="black"/>
<path d="M340.542 259.1C340.842 264.7 341.342 269.6 342.042 272.5C344.542 282.9 349.942 283.7 354.042 286.1C358.142 288.6 372.842 347.4 378.842 362.7" stroke="#63737A" stroke-width="1.8" stroke-miterlimit="10" stroke-linecap="round" stroke-linejoin="round"/>
<path d="M354.042 286.1C354.042 286.1 342.342 280.1 337.142 282.3" stroke="#63737A" stroke-width="1.8" stroke-miterlimit="10" stroke-linecap="round" stroke-linejoin="round"/>
<path d="M336.142 371.8C343.433 371.8 349.342 365.308 349.342 357.3C349.342 349.292 343.433 342.8 336.142 342.8C328.852 342.8 322.942 349.292 322.942 357.3C322.942 365.308 328.852 371.8 336.142 371.8Z" stroke="#63737A" stroke-width="1.8" stroke-miterlimit="10" stroke-linecap="round" stroke-linejoin="round"/>
<path d="M405.142 370.9C412.654 370.9 418.742 364.408 418.742 356.4C418.742 348.392 412.654 341.9 405.142 341.9C397.631 341.9 391.542 348.392 391.542 356.4C391.542 364.408 397.631 370.9 405.142 370.9Z" stroke="#63737A" stroke-width="1.8" stroke-miterlimit="10" stroke-linecap="round" stroke-linejoin="round"/>
<path d="M341.942 489.7C341.942 489.7 341.642 487.6 341.942 486.7" stroke="#63737A" stroke-width="1.8" stroke-miterlimit="10" stroke-linecap="round" stroke-linejoin="round"/>
<path d="M350.242 491C350.242 491 350.242 487.1 350.242 486.7" stroke="#63737A" stroke-width="1.8" stroke-miterlimit="10" stroke-linecap="round" stroke-linejoin="round"/>
<path d="M360.342 489C360.342 489 360.442 486.5 360.342 485.4" stroke="#63737A" stroke-width="1.8" stroke-miterlimit="10" stroke-linecap="round" stroke-linejoin="round"/>
<path d="M408.342 490.3C408.342 490.3 407.842 487.6 407.842 486.8" stroke="#63737A" stroke-width="1.8" stroke-miterlimit="10" stroke-linecap="round" stroke-linejoin="round"/>
<path d="M418.342 490.7C418.342 490.7 418.542 487.3 418.342 486.4" stroke="#63737A" stroke-width="1.8" stroke-miterlimit="10" stroke-linecap="round" stroke-linejoin="round"/>
<path d="M426.943 489.1C426.943 489.1 427.143 486.8 426.943 485.7" stroke="#63737A" stroke-width="1.8" stroke-miterlimit="10" stroke-linecap="round" stroke-linejoin="round"/>
<path d="M332.542 509.9C332.542 509.9 340.142 503.8 355.042 512.2" stroke="white" stroke-width="1.8" stroke-miterlimit="10" stroke-linecap="round" stroke-linejoin="round"/>
<path d="M326.842 517.6C326.842 517.6 336.242 510.1 350.242 519.2" stroke="white" stroke-width="1.8" stroke-miterlimit="10" stroke-linecap="round" stroke-linejoin="round"/>
<path d="M435.742 514.3C435.742 514.3 426.642 510.3 414.342 516.8" stroke="white" stroke-width="1.8" stroke-miterlimit="10" stroke-linecap="round" stroke-linejoin="round"/>
<path d="M439.842 521.1C439.842 521.1 429.342 516.5 416.642 524.8" stroke="white" stroke-width="1.8" stroke-miterlimit="10" stroke-linecap="round" stroke-linejoin="round"/>
<path d="M380.342 98.8C380.342 98.8 385.343 100.3 395.943 100.5C406.543 100.7 418.642 103.8 423.342 109.7C428.042 115.6 429.542 159.1 428.842 178.8C428.142 198.4 414.042 227.8 414.042 227.8C414.042 227.8 380.342 231.6 352.742 230.3C325.142 228.9 318.542 222.9 316.642 221C314.742 219.1 313.642 214.5 314.742 212.5C315.842 210.6 321.242 195 323.242 180.1C325.142 165.1 321.042 144.4 322.942 126.1C324.842 107.8 331.942 102.4 331.942 102.4C331.942 102.4 340.842 99.4 356.242 98.9C371.542 98.2 380.342 98.8 380.342 98.8Z" fill="#652CC2"/>
<path d="M378.842 151.5C382.432 151.5 385.342 148.59 385.342 145C385.342 141.41 382.432 138.5 378.842 138.5C375.253 138.5 372.342 141.41 372.342 145C372.342 148.59 375.253 151.5 378.842 151.5Z" fill="#F8AB5D"/>
<path d="M357.042 95C354.342 95.1 352.242 96.7 350.342 98.6C349.142 99.8 348.042 101.4 347.542 103.5C343.742 121.9 349.542 144.1 356.942 143.9C366.242 143.6 378.742 126.7 388.542 107.5C392.542 99.6 384.842 94.1 380.342 94.1C376.842 94 362.642 94.7 357.042 95Z" fill="#925AEC"/>
<path d="M399.743 56.1C399.743 56.1 399.742 64.2 395.042 72.2C390.342 80.2 384.643 84.4 382.743 88C380.843 91.6 381.343 82.2 382.743 77.7C384.143 73.3 392.443 49.2 399.743 56.1Z" fill="black"/>
<path d="M354.942 86.5C354.942 86.5 353.842 96.2 353.142 99.9C352.442 103.6 350.842 113.3 363.242 113.9C374.342 114.5 380.342 105.9 382.542 101.7C383.242 100.4 383.542 99 383.442 97.6C383.142 93.2 382.542 82.4 382.842 73.6C383.242 62.4 354.942 78.6 354.942 86.5Z" fill="#BF8686"/>
<path d="M376.943 87.2C371.043 91.9 362.342 94.1 354.142 92.9C353.842 95.5 353.442 98.3 353.142 99.9C353.042 100.4 352.942 101 352.842 101.7C362.942 102.2 374.443 97.2 376.943 87.2Z" fill="#B07E7E"/>
<path d="M343.142 50.5C343.142 50.5 340.442 54.4 340.842 57.4C341.242 60.4 346.942 70.5 349.842 70.2C352.742 69.9 355.742 57.5 352.342 53.4C348.842 49.3 344.242 48.6 343.142 50.5Z" fill="black"/>
<path d="M345.443 56.2C345.443 56.2 345.743 63.2 344.443 71.2C343.143 79.2 342.242 91.2 354.142 94.5C366.042 97.8 380.043 93.3 384.443 76.9C388.843 60.5 392.042 43.9 376.842 39.1C361.642 34.3 343.643 40.5 345.443 56.2Z" fill="#BF8686"/>
<path d="M350.542 64.2C350.842 65.3 350.742 66.6 350.342 67.8C350.142 68.4 349.842 68.9 349.442 69.4C349.242 69.7 349.042 69.9 348.842 70.1C348.742 70.2 348.642 70.4 348.542 70.5C348.442 70.8 348.442 71.1 348.542 71.4C348.642 71.8 348.942 72.2 349.242 72.6C349.842 73.4 350.742 74.1 351.642 74.7C350.442 74.8 349.242 74.4 348.242 73.6C347.742 73.2 347.242 72.7 346.942 72C346.642 71.3 346.542 70.4 346.942 69.7C347.142 69.3 347.342 69 347.642 68.8C347.842 68.6 348.042 68.5 348.142 68.3C348.442 67.9 348.842 67.5 349.042 67.1C349.642 66.2 350.142 65.3 350.542 64.2Z" fill="black"/>
<path d="M383.842 68.8C383.842 68.8 382.342 66.5 381.642 61.9C381.042 57.3 376.142 57.6 373.842 49.1C371.542 40.6 365.942 51.1 357.042 54.9C348.142 58.7 341.142 52.6 337.542 45.8C334.042 39.1 340.042 33 344.142 30.2C348.242 27.4 352.542 31.9 360.542 29.9C368.542 27.9 381.442 25.4 387.642 34.4C393.842 43.4 400.242 45.6 399.842 55.4C399.342 65.2 387.942 76.1 387.242 76.2C386.442 76.4 383.842 68.8 383.842 68.8Z" fill="black"/>
<path d="M362.742 59.4C362.442 58.6 362.142 57.1 363.242 56.3C364.342 55.5 366.842 55.8 369.242 57.3C371.342 58.6 371.942 60.7 370.542 60.5C369.142 60.3 368.042 59.7 366.342 59.6C364.542 59.5 363.042 60.1 362.742 59.4Z" fill="black"/>
<path d="M350.742 58.3C350.942 57.6 351.142 56.3 350.442 55.4C349.842 54.6 348.242 54.7 346.742 55.8C345.442 56.8 345.042 58.7 345.942 58.6C346.842 58.5 347.442 58.1 348.542 58.2C349.642 58.3 350.542 58.9 350.742 58.3Z" fill="black"/>
<path d="M343.842 76.3C343.842 76.3 343.743 77.5 345.443 77.8C347.143 78 347.342 75.5 350.242 75.1C352.042 74.9 358.343 75.4 360.943 77.8C363.543 80.2 367.142 83 372.342 81.4C377.542 79.8 380.642 72.5 381.642 61.9C382.542 52.2 386.142 61.6 386.142 63.9C386.142 65.5 384.642 63.2 382.842 69.7C382.042 72.6 382.842 80.8 379.742 86.8C377.342 91.4 370.642 96.1 362.142 96.7C353.642 97.3 346.642 93.8 344.542 88.2C342.442 82.8 343.242 76.7 343.842 76.3Z" fill="black"/>
<path d="M347.942 65.8C348.742 65.9 349.442 65.3 349.542 64.5L349.642 63.7C349.742 62.9 349.142 62.2 348.342 62.1C347.542 62 346.842 62.6 346.742 63.4L346.642 64.2C346.542 65 347.142 65.7 347.942 65.8Z" fill="black"/>
<path d="M363.842 66.8C364.642 66.9 365.342 66.3 365.442 65.5L365.542 64.7C365.642 63.9 365.042 63.2 364.242 63.1C363.442 63 362.742 63.6 362.642 64.4L362.542 65.2C362.442 66.1 363.042 66.8 363.842 66.8Z" fill="black"/>
<path d="M382.742 69.7C382.742 69.7 385.442 63.7 390.142 64.4C394.942 65.2 392.542 77.8 383.842 77.7" fill="#BF8686"/>
<path d="M389.842 68.9C389.542 68.6 389.242 68.3 389.042 68.2C388.742 68.1 388.842 68.3 388.642 68.4C388.642 68.5 388.442 69.3 388.342 70C388.242 70.7 388.042 71.5 387.642 72.2C387.442 72.6 387.242 73 386.842 73.3C386.442 73.6 385.942 73.7 385.542 73.5C385.942 73.3 386.042 73 386.142 72.7C386.242 72.4 386.242 72.1 386.342 71.8C386.442 71.1 386.442 70.4 386.642 69.6C386.742 69.2 386.843 68.8 386.943 68.4C387.043 68.2 387.142 68 387.242 67.8C387.342 67.7 387.342 67.6 387.542 67.5C387.642 67.4 387.843 67.3 387.943 67.2C388.143 67.1 388.442 67 388.842 67C389.242 67.1 389.442 67.3 389.642 67.5C389.942 68 389.942 68.5 389.842 68.9Z" fill="black"/>
<path d="M354.943 81.9C354.943 81.9 357.642 83.1 360.342 82.6" stroke="#BF8686" stroke-width="1.8" stroke-miterlimit="10" stroke-linecap="round" stroke-linejoin="round"/>
<path d="M350.115 62.9246C350.593 57.9215 348.306 53.6103 345.007 53.2954C341.708 52.9805 338.647 56.7811 338.169 61.7843C337.692 66.7874 339.979 71.0986 343.278 71.4135C346.576 71.7284 349.638 67.9278 350.115 62.9246Z" stroke="black" stroke-width="1.8" stroke-miterlimit="10" stroke-linecap="round" stroke-linejoin="round"/>
<path d="M372.353 64.8723C372.831 59.8691 369.786 55.4856 365.553 55.0815C361.319 54.6773 357.5 58.4056 357.022 63.4088C356.545 68.412 359.589 72.7954 363.823 73.1996C368.056 73.6037 371.875 69.8755 372.353 64.8723Z" stroke="black" stroke-width="1.8" stroke-miterlimit="10" stroke-linecap="round" stroke-linejoin="round"/>
<path d="M349.842 64.4C349.842 64.4 351.543 61.2 356.943 65" stroke="black" stroke-width="1.8" stroke-miterlimit="10" stroke-linecap="round" stroke-linejoin="round"/>
<path d="M372.242 64.9L383.542 67.3" stroke="black" stroke-width="1.8" stroke-miterlimit="10" stroke-linecap="round" stroke-linejoin="round"/>
<path d="M415.542 175.3L420.842 186C420.842 186 415.242 193.6 409.242 208C403.242 222.4 398.842 240.2 394.742 245.3C394.742 245.3 398.742 254.9 408.542 259.1C408.542 259.1 427.642 231.1 436.342 218.9C445.042 206.7 453.342 191.1 452.742 183.3C451.842 171.8 443.142 154.8 442.342 150.2C441.542 145.6 415.742 162 415.542 175.3Z" fill="#BF8686"/>
<path d="M442.242 150.2C441.542 145.7 415.742 162 415.542 175.3L416.342 176.8C425.442 169.9 435.642 165.2 446.542 161.9C444.442 156.7 442.542 152.2 442.242 150.2Z" fill="#B07E7E"/>
<path d="M399.742 234.9C401.142 237.3 405.942 243.7 417.142 246.3C417.542 246.4 417.642 246.8 417.442 247.1L412.342 254C412.242 254.2 411.942 254.2 411.742 254.2C399.242 250.4 395.942 244.1 395.442 242.9C395.342 242.8 395.342 242.6 395.442 242.5L398.842 235C399.042 234.5 399.542 234.5 399.742 234.9Z" fill="black"/>
<path d="M406.816 247.039C408.194 244.774 407.551 241.867 405.38 240.547C403.21 239.227 400.333 239.993 398.956 242.258C397.578 244.523 398.221 247.429 400.392 248.75C402.563 250.07 405.439 249.304 406.816 247.039Z" fill="white"/>
<path d="M418.443 108.9C420.843 108.5 423.242 109.4 424.742 111.3C427.042 114.2 430.842 119.8 435.542 129.4C443.442 145.5 448.943 156.1 448.943 156.1C448.943 156.1 421.542 170.9 415.542 175.3C415.542 175.3 404.442 156.6 400.842 148.8C397.342 141.4 398.343 112.6 418.443 108.9Z" fill="#925AEC"/>
<path d="M412.142 169.5C412.142 169.5 427.142 158.3 445.842 150.1" stroke="black" stroke-width="1.8" stroke-miterlimit="10" stroke-linecap="round" stroke-linejoin="round"/>
<path d="M390.842 238.7C390.842 238.7 395.542 256.2 414.842 262.3" stroke="#63737A" stroke-width="1.8" stroke-miterlimit="10" stroke-linecap="round" stroke-linejoin="round"/>
<path d="M420.842 186C420.842 186 423.442 182.6 429.042 181.3" stroke="#B07E7E" stroke-width="1.8" stroke-miterlimit="10" stroke-linecap="round" stroke-linejoin="round"/>
<path d="M569.043 211L480.543 200.1C477.643 199.7 475.643 197.2 475.943 194.3L485.343 106.5C485.743 103.1 488.343 100.4 491.743 99.9L583.343 87.5C586.743 87 589.743 89.9 589.343 93.4L575.743 205.9C575.343 209.1 572.343 211.4 569.043 211Z" fill="#63737A"/>
<path d="M566.043 210.7L477.543 199.7C474.643 199.3 472.643 196.8 472.943 193.9L482.343 106.1C482.743 102.7 485.343 100 488.743 99.5L580.343 87.1C583.743 86.6 586.743 89.5 586.343 93L572.743 205.5C572.343 208.7 569.343 211.1 566.043 210.7Z" fill="black"/>
<path d="M562.743 129.1L493.443 132.6C492.243 132.7 491.243 131.6 491.443 130.5L493.142 115C493.242 114.1 493.942 113.4 494.842 113.3L564.743 106.4C565.942 106.3 567.042 107.3 566.842 108.6L564.542 127.6C564.542 128.3 563.743 129 562.743 129.1Z" fill="#925AEC"/>
<path d="M511.142 118.7L557.043 115" stroke="black" stroke-width="1.8" stroke-miterlimit="10" stroke-linecap="round" stroke-linejoin="round"/>
<path d="M510.543 124.6L535.243 122.9" stroke="black" stroke-width="1.8" stroke-miterlimit="10" stroke-linecap="round" stroke-linejoin="round"/>
<path d="M503.18 123.575C504.072 121.923 503.691 119.988 502.33 119.254C500.969 118.52 499.143 119.264 498.252 120.917C497.36 122.569 497.741 124.504 499.102 125.238C500.463 125.972 502.289 125.228 503.18 123.575Z" fill="black"/>
<path d="M558.842 160.8L490.342 159.6C489.242 159.6 488.343 158.6 488.443 157.5L490.142 142.1C490.242 141.1 491.042 140.4 492.042 140.4L561.042 138.2C562.242 138.2 563.142 139.2 563.042 140.4L560.842 159.2C560.742 160 559.842 160.8 558.842 160.8Z" fill="#F8AB5D"/>
<path d="M508.043 146.9L553.443 146.3" stroke="black" stroke-width="1.8" stroke-miterlimit="10" stroke-linecap="round" stroke-linejoin="round"/>
<path d="M507.342 152.7H531.842" stroke="black" stroke-width="1.8" stroke-miterlimit="10" stroke-linecap="round" stroke-linejoin="round"/>
<path d="M500.194 151.175C501.011 149.484 500.585 147.587 499.242 146.939C497.899 146.29 496.149 147.135 495.332 148.826C494.515 150.516 494.941 152.413 496.284 153.061C497.627 153.71 499.377 152.865 500.194 151.175Z" fill="black"/>
<path d="M555.043 192.2L487.343 186.4C486.243 186.3 485.443 185.3 485.543 184.3L487.243 169C487.343 168 488.243 167.2 489.243 167.3L557.443 169.8C558.543 169.8 559.443 170.8 559.343 172L557.143 190.6C557.043 191.5 556.043 192.2 555.043 192.2Z" fill="#652CC2"/>
<path d="M504.943 174.9L549.743 177.3" stroke="black" stroke-width="1.8" stroke-miterlimit="10" stroke-linecap="round" stroke-linejoin="round"/>
<path d="M504.243 180.6L528.443 182.3" stroke="black" stroke-width="1.8" stroke-miterlimit="10" stroke-linecap="round" stroke-linejoin="round"/>
<path d="M497.357 177.945C498.097 176.219 497.585 174.344 496.214 173.756C494.844 173.169 493.133 174.092 492.394 175.818C491.654 177.544 492.166 179.42 493.537 180.007C494.907 180.594 496.618 179.671 497.357 177.945Z" fill="black"/>
</g>
</svg>
